<?xml version="1.0" encoding="UTF-8"?>
<svg xmlns="http://www.w3.org/2000/svg" xmlns:xlink="http://www.w3.org/1999/xlink" viewBox="0 0 595.42 798.03">
  <defs>
    <style>
      .cls-1 {
        fill: #fff;
      }

      .cls-2 {
        fill: #2b2d31;
      }

      .cls-3 {
        fill: #e52320;
      }

      .cls-4 {
        fill: #cac4d8;
      }

      .cls-5 {
        fill: #383d6b;
      }

      .cls-6 {
        fill: #cdcccc;
      }

      .cls-7 {
        fill: #dadada;
      }

      .cls-8 {
        clip-path: url(#clippath);
      }

      .cls-9 {
        fill: none;
      }
    </style>
    <clipPath id="clippath">
      <rect class="cls-9" x="12.4" width="583.02" height="787.7" rx="19.03" ry="19.03"/>
    </clipPath>
  </defs>
  <g id="Capa_2" data-name="Capa 2">
    <rect class="cls-2" x="12.4" width="583.02" height="787.7" rx="19.03" ry="19.03"/>
    <g class="cls-8">
      <rect class="cls-3" width="28.94" height="798.03"/>
    </g>
  </g>
  <g id="Capa_3" data-name="Capa 3">
    <g>
      <path class="cls-1" d="M87.13,121.01h-8.34v-39.94h10.54l15.17,28.13v-28.13h8.34v39.94h-10.42l-15.28-28.25v28.25Z"/>
      <path class="cls-1" d="M123.11,118.18c-2.68-2.43-4.02-6-4.02-10.71,0-3.2,.64-5.89,1.91-8.08,1.27-2.18,2.94-3.79,5.01-4.83,2.06-1.04,4.27-1.56,6.63-1.56,4.36,0,7.6,1.29,9.73,3.88,2.12,2.59,3.18,5.94,3.18,10.07,0,.89-.06,1.79-.17,2.72h-18.41c.39,1.78,1.18,3.16,2.37,4.17,1.2,1,2.72,1.51,4.57,1.51,1.31,0,2.49-.23,3.53-.69,1.04-.46,2.04-1.18,3.01-2.14l4.11,5.21c-1.35,1.27-2.89,2.28-4.63,3.01-1.74,.73-3.82,1.1-6.25,1.1-4.36,0-7.88-1.22-10.56-3.65Zm15.25-14.01c-.42-3.24-2.32-4.86-5.67-4.86-1.54,0-2.79,.43-3.73,1.27-.95,.85-1.59,2.05-1.94,3.59h11.35Z"/>
      <path class="cls-1" d="M152.37,119.59c-1.54-1.48-2.32-3.5-2.32-6.05,0-3.09,1.4-5.37,4.2-6.86,2.8-1.49,6.74-2.27,11.84-2.34v-.17c0-1.39-.45-2.51-1.36-3.36-.91-.85-2.09-1.27-3.56-1.27-1.12,0-2.29,.21-3.5,.64-1.22,.42-2.36,1.12-3.44,2.08l-3.71-4.92c1.39-1.43,3.05-2.51,4.98-3.24,1.93-.73,4.03-1.1,6.31-1.1,8.18,0,12.27,3.72,12.27,11.17v16.85h-7.47l-.52-2.95c-1.89,2.51-4.46,3.76-7.7,3.76-2.47,0-4.48-.74-6.02-2.23Zm11.26-4.75c.87-.48,1.69-1.11,2.46-1.88v-3.65c-5.52,.27-8.28,1.54-8.28,3.82,0,.81,.25,1.42,.75,1.82,.5,.41,1.18,.61,2.03,.61,1.16,0,2.17-.24,3.04-.72Z"/>
      <path class="cls-1" d="M185.02,119.45c-1.51-1.58-2.26-4.07-2.26-7.47v-11.35h-4.8v-6.83h4.8v-7.06l8.05-2.32v9.38h6.6v6.83h-6.6v10.48c0,1.24,.23,2.19,.69,2.87,.46,.68,1.33,1.01,2.6,1.01s2.33-.4,3.3-1.22v6.66c-1.31,.93-3.11,1.39-5.38,1.39-3.17,0-5.5-.79-7-2.37Z"/>
      <path class="cls-1" d="M212.57,120.55c-3.51-1.39-6.27-3.76-8.28-7.12-2.01-3.36-3.01-7.49-3.01-12.39,0-4.24,.77-7.94,2.32-11.09,1.54-3.15,3.71-5.55,6.48-7.21,2.78-1.66,5.98-2.49,9.61-2.49s6.83,.83,9.61,2.49c2.78,1.66,4.94,4.06,6.48,7.21,1.54,3.15,2.32,6.84,2.32,11.09s-.81,8.19-2.43,11.38c-1.62,3.18-3.9,5.57-6.83,7.15l8.1,1.97v8.8l-24.37-9.78Zm14.53-9.75c1.7-2.26,2.55-5.51,2.55-9.75s-.85-7.5-2.55-9.75c-1.7-2.26-4.17-3.39-7.41-3.39s-5.71,1.13-7.41,3.39c-1.7,2.26-2.55,5.51-2.55,9.75s.85,7.5,2.55,9.75c1.7,2.26,4.17,3.39,7.41,3.39s5.71-1.13,7.41-3.39Z"/>
      <path class="cls-1" d="M246.03,119.25c-1.43-1.72-2.14-4.02-2.14-6.92v-18.52h7.99v17.08c0,1.24,.32,2.23,.96,2.98,.64,.75,1.51,1.13,2.63,1.13s2.09-.33,3.04-.98c.95-.66,1.63-1.43,2.06-2.32v-17.89h7.99v27.21h-7.41l-.58-3.76c-.77,1.35-1.82,2.45-3.15,3.3-1.33,.85-2.94,1.27-4.83,1.27-2.93,0-5.11-.86-6.54-2.58Z"/>
      <path class="cls-1" d="M278.36,118.18c-2.68-2.43-4.02-6-4.02-10.71,0-3.2,.64-5.89,1.91-8.08,1.27-2.18,2.94-3.79,5.01-4.83s4.27-1.56,6.63-1.56c4.36,0,7.6,1.29,9.73,3.88,2.12,2.59,3.18,5.94,3.18,10.07,0,.89-.06,1.79-.17,2.72h-18.41c.39,1.78,1.18,3.16,2.37,4.17,1.2,1,2.72,1.51,4.57,1.51,1.31,0,2.49-.23,3.53-.69,1.04-.46,2.04-1.18,3.01-2.14l4.11,5.21c-1.35,1.27-2.89,2.28-4.63,3.01-1.74,.73-3.82,1.1-6.25,1.1-4.36,0-7.88-1.22-10.56-3.65Zm15.25-14.01c-.43-3.24-2.32-4.86-5.67-4.86-1.54,0-2.79,.43-3.73,1.27-.95,.85-1.59,2.05-1.94,3.59h11.35Z"/>
      <path class="cls-1" d="M308.6,119.25c-1.43-1.72-2.14-4.02-2.14-6.92v-18.52h7.99v17.08c0,1.24,.32,2.23,.96,2.98,.64,.75,1.51,1.13,2.63,1.13s2.09-.33,3.04-.98c.94-.66,1.63-1.43,2.05-2.32v-17.89h7.99v27.21h-7.41l-.58-3.76c-.77,1.35-1.82,2.45-3.16,3.3-1.33,.85-2.94,1.27-4.83,1.27-2.93,0-5.11-.86-6.54-2.58Z"/>
      <path class="cls-1" d="M340.93,118.18c-2.68-2.43-4.02-6-4.02-10.71,0-3.2,.64-5.89,1.91-8.08,1.27-2.18,2.94-3.79,5.01-4.83s4.27-1.56,6.63-1.56c4.36,0,7.6,1.29,9.73,3.88,2.12,2.59,3.18,5.94,3.18,10.07,0,.89-.06,1.79-.17,2.72h-18.41c.39,1.78,1.18,3.16,2.37,4.17,1.2,1,2.72,1.51,4.57,1.51,1.31,0,2.49-.23,3.53-.69,1.04-.46,2.04-1.18,3.01-2.14l4.11,5.21c-1.35,1.27-2.89,2.28-4.63,3.01-1.74,.73-3.82,1.1-6.25,1.1-4.36,0-7.88-1.22-10.56-3.65Zm15.25-14.01c-.43-3.24-2.32-4.86-5.67-4.86-1.54,0-2.79,.43-3.73,1.27-.95,.85-1.59,2.05-1.94,3.59h11.35Z"/>
      <path class="cls-1" d="M391.67,120.55c-3.51-1.39-6.27-3.76-8.28-7.12-2.01-3.36-3.01-7.49-3.01-12.39,0-4.24,.77-7.94,2.32-11.09,1.54-3.15,3.7-5.55,6.48-7.21,2.78-1.66,5.98-2.49,9.61-2.49s6.83,.83,9.61,2.49c2.78,1.66,4.94,4.06,6.48,7.21,1.54,3.15,2.32,6.84,2.32,11.09s-.81,8.19-2.43,11.38c-1.62,3.18-3.9,5.57-6.83,7.15l8.1,1.97v8.8l-24.37-9.78Zm14.53-9.75c1.7-2.26,2.55-5.51,2.55-9.75s-.85-7.5-2.55-9.75c-1.7-2.26-4.17-3.39-7.41-3.39s-5.71,1.13-7.41,3.39c-1.7,2.26-2.55,5.51-2.55,9.75s.85,7.5,2.55,9.75c1.7,2.26,4.17,3.39,7.41,3.39s5.71-1.13,7.41-3.39Z"/>
      <path class="cls-1" d="M425.13,119.25c-1.43-1.72-2.14-4.02-2.14-6.92v-18.52h7.99v17.08c0,1.24,.32,2.23,.96,2.98,.64,.75,1.51,1.13,2.63,1.13s2.09-.33,3.04-.98c.94-.66,1.63-1.43,2.05-2.32v-17.89h7.99v27.21h-7.41l-.58-3.76c-.77,1.35-1.82,2.45-3.16,3.3-1.33,.85-2.94,1.27-4.83,1.27-2.93,0-5.11-.86-6.54-2.58Z"/>
      <path class="cls-1" d="M457.46,118.18c-2.68-2.43-4.02-6-4.02-10.71,0-3.2,.64-5.89,1.91-8.08,1.27-2.18,2.94-3.79,5.01-4.83s4.27-1.56,6.63-1.56c4.36,0,7.6,1.29,9.73,3.88,2.12,2.59,3.18,5.94,3.18,10.07,0,.89-.06,1.79-.17,2.72h-18.41c.39,1.78,1.18,3.16,2.37,4.17,1.2,1,2.72,1.51,4.57,1.51,1.31,0,2.49-.23,3.53-.69,1.04-.46,2.04-1.18,3.01-2.14l4.11,5.21c-1.35,1.27-2.89,2.28-4.63,3.01-1.74,.73-3.82,1.1-6.25,1.1-4.36,0-7.88-1.22-10.56-3.65Zm15.25-14.01c-.43-3.24-2.32-4.86-5.67-4.86-1.54,0-2.79,.43-3.73,1.27-.95,.85-1.59,2.05-1.94,3.59h11.35Z"/>
      <path class="cls-1" d="M487.7,119.25c-1.43-1.72-2.14-4.02-2.14-6.92v-18.52h7.99v17.08c0,1.24,.32,2.23,.96,2.98,.64,.75,1.51,1.13,2.63,1.13s2.09-.33,3.04-.98c.94-.66,1.63-1.43,2.05-2.32v-17.89h7.99v27.21h-7.41l-.58-3.76c-.77,1.35-1.82,2.45-3.16,3.3-1.33,.85-2.94,1.27-4.83,1.27-2.93,0-5.11-.86-6.54-2.58Z"/>
      <path class="cls-1" d="M520.03,118.18c-2.68-2.43-4.02-6-4.02-10.71,0-3.2,.64-5.89,1.91-8.08,1.27-2.18,2.94-3.79,5.01-4.83s4.27-1.56,6.63-1.56c4.36,0,7.6,1.29,9.73,3.88,2.12,2.59,3.18,5.94,3.18,10.07,0,.89-.06,1.79-.17,2.72h-18.41c.39,1.78,1.18,3.16,2.37,4.17,1.2,1,2.72,1.51,4.57,1.51,1.31,0,2.49-.23,3.53-.69,1.04-.46,2.04-1.18,3.01-2.14l4.11,5.21c-1.35,1.27-2.89,2.28-4.63,3.01-1.74,.73-3.82,1.1-6.25,1.1-4.36,0-7.88-1.22-10.56-3.65Zm15.25-14.01c-.43-3.24-2.32-4.86-5.67-4.86-1.54,0-2.79,.43-3.73,1.27-.95,.85-1.59,2.05-1.94,3.59h11.35Z"/>
    </g>
    <g>
      <path class="cls-1" d="M89.11,406.08c-3.67-1.39-6.55-3.75-8.65-7.09-2.1-3.34-3.15-7.57-3.15-12.71,0-4.32,.75-8.05,2.26-11.17,1.51-3.13,3.61-5.51,6.31-7.15,2.7-1.64,5.81-2.46,9.32-2.46s6.63,.82,9.35,2.46c2.72,1.64,4.83,4.02,6.34,7.15,1.5,3.13,2.26,6.85,2.26,11.17,0,4.82-.93,8.88-2.78,12.16-1.85,3.28-4.42,5.61-7.7,7l9.03,2.37v6.89l-22.58-8.62Zm14.33-8.94c1.95-2.53,2.92-6.15,2.92-10.85s-.98-8.33-2.92-10.85c-1.95-2.53-4.7-3.79-8.25-3.79s-6.24,1.26-8.19,3.79c-1.95,2.53-2.92,6.15-2.92,10.85s.97,8.33,2.92,10.85c1.95,2.53,4.68,3.79,8.19,3.79s6.3-1.26,8.25-3.79Z"/>
      <path class="cls-1" d="M121.7,404.54c-1.47-1.68-2.2-4-2.2-6.98v-18.52h6.37v17.66c0,1.54,.38,2.76,1.13,3.65s1.86,1.33,3.33,1.33c1.27,0,2.43-.36,3.47-1.07s1.93-1.69,2.66-2.92v-18.64h6.37v27.21h-5.79l-.58-3.71c-.81,1.31-1.92,2.39-3.33,3.24-1.41,.85-3.02,1.27-4.83,1.27-2.93,0-5.13-.84-6.6-2.52Z"/>
      <path class="cls-1" d="M155.8,405.33c-2.08-1.16-3.7-2.82-4.83-4.98-1.14-2.16-1.71-4.73-1.71-7.7s.58-5.55,1.74-7.73c1.16-2.18,2.73-3.84,4.72-4.98,1.99-1.14,4.2-1.71,6.63-1.71,3.97,0,7.02,1.24,9.15,3.73,2.12,2.49,3.18,5.82,3.18,9.99,0,.5-.04,1.29-.12,2.37h-18.99c.31,2.35,1.13,4.2,2.46,5.53s3.08,2,5.24,2c1.51,0,2.84-.3,3.99-.9,1.16-.6,2.22-1.48,3.18-2.63l3.7,3.94c-1.39,1.62-2.95,2.83-4.69,3.62-1.74,.79-3.86,1.19-6.37,1.19-2.78,0-5.21-.58-7.29-1.74Zm13.08-15.63c-.15-2.12-.81-3.71-1.97-4.75s-2.7-1.56-4.63-1.56c-1.78,0-3.23,.55-4.37,1.65-1.14,1.1-1.88,2.65-2.23,4.66h13.2Z"/>
      <path class="cls-1" d="M183.18,404.54c-1.47-1.68-2.2-4-2.2-6.98v-18.52h6.37v17.66c0,1.54,.38,2.76,1.13,3.65s1.86,1.33,3.33,1.33c1.27,0,2.43-.36,3.47-1.07s1.93-1.69,2.66-2.92v-18.64h6.37v27.21h-5.79l-.58-3.71c-.81,1.31-1.92,2.39-3.33,3.24-1.41,.85-3.02,1.27-4.83,1.27-2.93,0-5.13-.84-6.6-2.52Z"/>
      <path class="cls-1" d="M217.27,405.33c-2.08-1.16-3.7-2.82-4.83-4.98-1.14-2.16-1.71-4.73-1.71-7.7s.58-5.55,1.74-7.73c1.16-2.18,2.73-3.84,4.72-4.98,1.99-1.14,4.2-1.71,6.63-1.71,3.97,0,7.02,1.24,9.15,3.73,2.12,2.49,3.18,5.82,3.18,9.99,0,.5-.04,1.29-.12,2.37h-18.99c.31,2.35,1.13,4.2,2.46,5.53s3.08,2,5.24,2c1.51,0,2.84-.3,3.99-.9,1.16-.6,2.22-1.48,3.18-2.63l3.7,3.94c-1.39,1.62-2.95,2.83-4.69,3.62-1.74,.79-3.86,1.19-6.37,1.19-2.78,0-5.21-.58-7.29-1.74Zm13.08-15.63c-.15-2.12-.81-3.71-1.97-4.75s-2.7-1.56-4.63-1.56c-1.78,0-3.23,.55-4.37,1.65-1.14,1.1-1.88,2.65-2.23,4.66h13.2Z"/>
      <path class="cls-1" d="M262.77,374.65c-2.01,3.78-5.04,5.89-9.09,6.31v-7.47c1.74-.19,3.44-.93,5.12-2.2,1.68-1.27,3-2.93,3.97-4.98h6.71v39.94h-6.71v-31.61Z"/>
      <path class="cls-1" d="M281.93,413.2h-6.31l15.86-49.2h6.31l-15.86,49.2Z"/>
      <path class="cls-1" d="M311.11,374.65c-2.01,3.78-5.04,5.89-9.09,6.31v-7.47c1.74-.19,3.44-.93,5.12-2.2,1.68-1.27,3-2.93,3.96-4.98h6.71v39.94h-6.71v-31.61Z"/>
      <path class="cls-1" d="M331.74,404.75c-2.26-1.54-4.03-3.87-5.33-6.98-1.29-3.11-1.94-6.94-1.94-11.49s.65-8.38,1.94-11.49c1.29-3.11,3.07-5.43,5.33-6.98,2.26-1.54,4.81-2.32,7.67-2.32s5.4,.77,7.64,2.32c2.24,1.54,4,3.87,5.3,6.98,1.29,3.11,1.94,6.94,1.94,11.49s-.65,8.38-1.94,11.49c-1.29,3.11-3.06,5.43-5.3,6.98-2.24,1.54-4.79,2.32-7.64,2.32s-5.41-.77-7.67-2.32Zm13.92-7.15c1.35-2.41,2.03-6.18,2.03-11.32s-.68-8.9-2.03-11.32c-1.35-2.41-3.44-3.62-6.25-3.62s-4.9,1.21-6.25,3.62c-1.35,2.41-2.03,6.19-2.03,11.32s.67,8.91,2.03,11.32c1.35,2.41,3.43,3.62,6.25,3.62s4.9-1.21,6.25-3.62Z"/>
    </g>
    <g>
      <path class="cls-7" d="M87.28,714.54c-1.99-1.17-3.55-2.9-4.7-5.16-1.15-2.27-1.72-4.98-1.72-8.15s.57-5.8,1.72-8.08c1.15-2.28,2.71-4.02,4.7-5.21,1.99-1.19,4.24-1.78,6.76-1.78s4.74,.53,6.57,1.6c1.83,1.06,3.27,2.64,4.3,4.74l-3.74,2.81c-.73-1.51-1.72-2.67-2.98-3.48-1.26-.81-2.65-1.22-4.16-1.22s-2.98,.41-4.24,1.24c-1.26,.83-2.25,2.04-2.96,3.65-.71,1.61-1.07,3.52-1.07,5.73s.35,4,1.05,5.61c.7,1.61,1.67,2.85,2.92,3.71,1.25,.87,2.67,1.3,4.26,1.3s3.01-.41,4.24-1.22c1.23-.81,2.21-1.97,2.94-3.48l3.74,2.81c-1.06,2.07-2.52,3.65-4.37,4.72s-4.03,1.62-6.55,1.62-4.73-.59-6.72-1.76Z"/>
      <path class="cls-7" d="M109.16,715.72v-19.73h4.11l.5,2.85c.59-1.15,1.32-2.01,2.18-2.58,.87-.57,1.97-.86,3.32-.86,.92,0,1.62,.13,2.1,.38v4.41c-.87-.39-1.82-.59-2.85-.59s-1.92,.31-2.73,.92c-.81,.62-1.48,1.47-2.02,2.56v12.64h-4.62Z"/>
      <path class="cls-7" d="M128.3,715.05c-1.51-.84-2.68-2.04-3.51-3.61-.83-1.57-1.24-3.43-1.24-5.58s.42-4.02,1.26-5.6c.84-1.58,1.98-2.78,3.42-3.61,1.44-.83,3.04-1.24,4.81-1.24,2.88,0,5.09,.9,6.63,2.71,1.54,1.8,2.31,4.22,2.31,7.24,0,.36-.03,.94-.08,1.72h-13.77c.22,1.71,.82,3.04,1.78,4.01,.97,.96,2.23,1.45,3.8,1.45,1.09,0,2.06-.22,2.9-.65,.84-.43,1.61-1.07,2.31-1.91l2.69,2.86c-1.01,1.17-2.14,2.05-3.4,2.62-1.26,.57-2.8,.86-4.62,.86-2.02,0-3.78-.42-5.29-1.26Zm9.49-11.33c-.11-1.54-.59-2.69-1.43-3.44s-1.96-1.13-3.36-1.13c-1.29,0-2.34,.4-3.17,1.2-.83,.8-1.36,1.92-1.62,3.38h9.57Z"/>
      <path class="cls-7" d="M147.28,714.75c-1.18-1.04-1.76-2.49-1.76-4.37,0-4.42,4.03-6.67,12.09-6.76v-.59c0-1.2-.35-2.14-1.05-2.81-.7-.67-1.68-1.01-2.94-1.01-.9,0-1.81,.19-2.75,.57-.94,.38-1.81,.95-2.62,1.7l-2.27-2.9c.95-1.01,2.11-1.79,3.48-2.35,1.37-.56,2.84-.84,4.41-.84,5.57,0,8.35,2.55,8.35,7.64v12.68h-4.24l-.38-2.48c-.53,.81-1.31,1.53-2.33,2.14-1.02,.62-2.22,.92-3.59,.92-1.76,0-3.23-.52-4.41-1.55Zm10.33-4.79v-3.27c-2.58,.08-4.48,.41-5.71,.99-1.23,.57-1.85,1.41-1.85,2.5,0,.78,.25,1.39,.76,1.81,.5,.42,1.19,.63,2.06,.63,1.82,0,3.4-.88,4.74-2.65Z"/>
      <path class="cls-7" d="M170.6,714.69c-1.02-1.08-1.53-2.75-1.53-5.02v-9.74h-3.74v-3.95h3.74v-5.37l4.66-1.43v6.8h5.42v3.95h-5.42v9.4c0,.87,.17,1.59,.52,2.16,.35,.57,1.06,.86,2.12,.86,.53,0,1-.07,1.41-.21,.41-.14,.86-.38,1.36-.71v3.86c-1.06,.67-2.38,1.01-3.95,1.01-2.04,0-3.58-.54-4.6-1.62Z"/>
      <path class="cls-7" d="M186.66,715.05c-1.51-.84-2.68-2.04-3.51-3.61-.83-1.57-1.24-3.43-1.24-5.58s.42-4.02,1.26-5.6c.84-1.58,1.98-2.78,3.42-3.61,1.44-.83,3.04-1.24,4.81-1.24,2.88,0,5.09,.9,6.63,2.71,1.54,1.8,2.31,4.22,2.31,7.24,0,.36-.03,.94-.08,1.72h-13.77c.22,1.71,.82,3.04,1.78,4.01,.97,.96,2.23,1.45,3.8,1.45,1.09,0,2.06-.22,2.9-.65,.84-.43,1.61-1.07,2.31-1.91l2.69,2.86c-1.01,1.17-2.14,2.05-3.4,2.62-1.26,.57-2.8,.86-4.62,.86-2.02,0-3.78-.42-5.29-1.26Zm9.49-11.33c-.11-1.54-.59-2.69-1.43-3.44s-1.96-1.13-3.36-1.13c-1.29,0-2.34,.4-3.17,1.2-.83,.8-1.36,1.92-1.62,3.38h9.57Z"/>
      <path class="cls-7" d="M208.11,715.09c-1.32-.81-2.37-2-3.15-3.57-.78-1.57-1.18-3.46-1.18-5.67s.39-4.1,1.18-5.67c.78-1.57,1.83-2.76,3.15-3.57,1.32-.81,2.76-1.22,4.32-1.22,1.15,0,2.18,.19,3.11,.57,.92,.38,1.69,.9,2.31,1.57v-12.47h4.62v30.65h-3.95l-.34-2.18c-.67,.87-1.49,1.55-2.46,2.04-.97,.49-2.06,.73-3.3,.73-1.57,0-3.01-.41-4.32-1.22Zm9.74-5.12v-8.23c-1.12-1.59-2.53-2.39-4.24-2.39-1.48,0-2.71,.57-3.69,1.7-.98,1.13-1.47,2.74-1.47,4.81s.49,3.67,1.47,4.81c.98,1.13,2.21,1.7,3.69,1.7,1.68,0,3.09-.8,4.24-2.39Z"/>
      <path class="cls-7" d="M244.3,715.57c-.98-.49-1.81-1.17-2.48-2.04l-.29,2.18h-3.99v-30.65h4.62v12.47c1.37-1.43,3.19-2.14,5.46-2.14,1.57,0,3.01,.41,4.32,1.22,1.31,.81,2.36,2,3.15,3.57,.78,1.57,1.18,3.46,1.18,5.67s-.39,4.1-1.18,5.67c-.78,1.57-1.83,2.76-3.15,3.57-1.32,.81-2.76,1.22-4.32,1.22-1.23,0-2.34-.25-3.32-.73Zm5.81-4.91c.99-1.13,1.49-2.74,1.49-4.81s-.5-3.67-1.49-4.81c-.99-1.13-2.22-1.7-3.67-1.7-1.74,0-3.16,.8-4.28,2.39v8.23c1.15,1.6,2.57,2.39,4.28,2.39,1.46,0,2.68-.57,3.67-1.7Z"/>
      <path class="cls-7" d="M257.9,723.53v-3.99c.95,.42,1.82,.63,2.6,.63,1.01,0,1.81-.31,2.39-.92,.59-.62,1.13-1.58,1.64-2.9l.67-1.76-7.22-18.6h4.83l4.58,12.76,4.87-12.76h4.7l-9.07,22.54c-.7,1.76-1.62,3.13-2.75,4.11-1.13,.98-2.48,1.47-4.05,1.47-1.23,0-2.3-.2-3.19-.59Z"/>
      <path class="cls-7" d="M294.88,715.72h-4.83v-28.97h6.05l12.51,22v-22h4.83v28.97h-5.88l-12.68-22.08v22.08Z"/>
      <path class="cls-7" d="M323.14,715.05c-1.51-.84-2.68-2.04-3.5-3.61-.83-1.57-1.24-3.43-1.24-5.58s.42-4.02,1.26-5.6c.84-1.58,1.98-2.78,3.42-3.61,1.44-.83,3.04-1.24,4.81-1.24,2.88,0,5.09,.9,6.63,2.71,1.54,1.8,2.31,4.22,2.31,7.24,0,.36-.03,.94-.08,1.72h-13.77c.22,1.71,.82,3.04,1.79,4.01s2.23,1.45,3.8,1.45c1.09,0,2.06-.22,2.9-.65,.84-.43,1.61-1.07,2.31-1.91l2.69,2.86c-1.01,1.17-2.14,2.05-3.4,2.62-1.26,.57-2.8,.86-4.62,.86-2.01,0-3.78-.42-5.29-1.26Zm9.49-11.33c-.11-1.54-.59-2.69-1.43-3.44-.84-.76-1.96-1.13-3.36-1.13-1.29,0-2.34,.4-3.17,1.2-.83,.8-1.37,1.92-1.62,3.38h9.57Z"/>
      <path class="cls-7" d="M342.12,714.75c-1.18-1.04-1.76-2.49-1.76-4.37,0-4.42,4.03-6.67,12.09-6.76v-.59c0-1.2-.35-2.14-1.05-2.81-.7-.67-1.68-1.01-2.94-1.01-.9,0-1.81,.19-2.75,.57-.94,.38-1.81,.95-2.62,1.7l-2.27-2.9c.95-1.01,2.11-1.79,3.49-2.35,1.37-.56,2.84-.84,4.41-.84,5.57,0,8.35,2.55,8.35,7.64v12.68h-4.24l-.38-2.48c-.53,.81-1.31,1.53-2.33,2.14-1.02,.62-2.22,.92-3.59,.92-1.76,0-3.23-.52-4.41-1.55Zm10.33-4.79v-3.27c-2.58,.08-4.48,.41-5.71,.99-1.23,.57-1.85,1.41-1.85,2.5,0,.78,.25,1.39,.76,1.81s1.19,.63,2.06,.63c1.82,0,3.4-.88,4.74-2.65Z"/>
      <path class="cls-7" d="M365.44,714.69c-1.02-1.08-1.53-2.75-1.53-5.02v-9.74h-3.74v-3.95h3.74v-5.37l4.66-1.43v6.8h5.42v3.95h-5.42v9.4c0,.87,.17,1.59,.52,2.16,.35,.57,1.06,.86,2.12,.86,.53,0,1-.07,1.41-.21,.41-.14,.86-.38,1.36-.71v3.86c-1.06,.67-2.38,1.01-3.95,1.01-2.04,0-3.58-.54-4.6-1.62Z"/>
      <path class="cls-7" d="M397.36,715.72h-20.07v-4.32l13.94-20.19h-13.48v-4.45h19.14v4.32l-13.9,20.19h14.36v4.45Z"/>
    </g>
  </g>
  <g id="Capa_5" data-name="Capa 5">
    <g>
      <path class="cls-1" d="M75.39,183.45v-31.05h13.19c3,0,5.38,.88,7.13,2.66,1.76,1.77,2.63,4.21,2.63,7.33s-.88,5.59-2.63,7.42c-1.75,1.83-4.13,2.75-7.13,2.75h-7.96v10.89h-5.22Zm12.42-15.66c1.68,0,2.98-.43,3.89-1.3,.92-.87,1.37-2.21,1.37-4s-.46-3.13-1.37-4c-.92-.87-2.21-1.31-3.89-1.31h-7.2v10.62h7.2Z"/>
      <path class="cls-1" d="M103.24,177.42v-26.82h4.95v26.42c0,.93,.16,1.6,.47,2s.83,.61,1.55,.61c.66,0,1.17-.13,1.53-.41v4.23c-.66,.36-1.53,.54-2.61,.54-3.93,0-5.9-2.19-5.9-6.57Z"/>
      <path class="cls-1" d="M117.24,182.42c-1.26-1.11-1.89-2.67-1.89-4.68,0-4.74,4.32-7.16,12.96-7.25v-.63c0-1.29-.38-2.29-1.12-3.02-.75-.72-1.8-1.08-3.15-1.08-.96,0-1.94,.2-2.95,.61-1.01,.4-1.94,1.01-2.81,1.82l-2.43-3.11c1.02-1.08,2.27-1.92,3.74-2.52,1.47-.6,3.04-.9,4.72-.9,5.97,0,8.96,2.73,8.96,8.19v13.59h-4.54l-.4-2.66c-.57,.87-1.4,1.64-2.5,2.29-1.1,.66-2.38,.99-3.85,.99-1.89,0-3.46-.56-4.73-1.67Zm11.07-5.13v-3.51c-2.76,.09-4.8,.44-6.12,1.06-1.32,.62-1.98,1.51-1.98,2.68,0,.84,.27,1.49,.81,1.94s1.27,.67,2.21,.67c1.95,0,3.65-.95,5.08-2.83Z"/>
      <path class="cls-1" d="M135.78,191.82v-4.28c1.02,.45,1.95,.67,2.79,.67,1.08,0,1.94-.33,2.57-.99,.63-.66,1.21-1.7,1.75-3.11l.72-1.89-7.74-19.94h5.17l4.91,13.68,5.22-13.68h5.04l-9.72,24.17c-.75,1.89-1.73,3.36-2.95,4.41s-2.66,1.58-4.34,1.58c-1.32,0-2.46-.21-3.42-.63Z"/>
      <path class="cls-1" d="M162.73,182.73c-1.62-.9-2.87-2.19-3.76-3.87-.89-1.68-1.33-3.67-1.33-5.99s.45-4.31,1.35-6.01c.9-1.7,2.12-2.99,3.67-3.87,1.54-.88,3.26-1.33,5.15-1.33,3.09,0,5.46,.97,7.11,2.9,1.65,1.94,2.48,4.52,2.48,7.76,0,.39-.03,1.01-.09,1.85h-14.76c.24,1.83,.88,3.26,1.91,4.3s2.39,1.55,4.07,1.55c1.17,0,2.21-.23,3.1-.7,.9-.46,1.73-1.15,2.48-2.05l2.88,3.06c-1.08,1.26-2.3,2.2-3.65,2.81-1.35,.62-3,.92-4.95,.92-2.16,0-4.05-.45-5.67-1.35Zm10.17-12.15c-.12-1.65-.63-2.88-1.53-3.69-.9-.81-2.1-1.22-3.6-1.22-1.38,0-2.51,.43-3.4,1.28-.89,.85-1.46,2.06-1.73,3.62h10.26Z"/>
      <path class="cls-1" d="M182.31,183.45v-21.15h4.41l.54,3.06c.63-1.23,1.41-2.15,2.34-2.77,.93-.61,2.11-.92,3.56-.92,.99,0,1.74,.14,2.25,.41v4.72c-.93-.42-1.95-.63-3.06-.63s-2.06,.33-2.93,.99c-.87,.66-1.59,1.58-2.16,2.75v13.54h-4.95Z"/>
      <path class="cls-1" d="M212.05,182.6c-1.62-.99-2.85-2.35-3.69-4.09l3.73-3.15c.69,1.32,1.49,2.31,2.39,2.97,.9,.66,1.96,.99,3.19,.99,3.12,0,4.68-2.04,4.68-6.12v-20.79h5.26v20.43c0,3.75-.87,6.56-2.61,8.44-1.74,1.88-4.2,2.81-7.38,2.81-2.1,0-3.96-.5-5.58-1.49Z"/>
      <path class="cls-1" d="M238.02,182.78c-1.56-.87-2.8-2.14-3.71-3.83-.92-1.68-1.37-3.71-1.37-6.08s.46-4.39,1.37-6.08c.92-1.68,2.15-2.95,3.71-3.82s3.3-1.31,5.22-1.31,3.66,.44,5.22,1.31c1.56,.87,2.8,2.14,3.71,3.82,.91,1.68,1.37,3.71,1.37,6.08s-.46,4.4-1.37,6.08c-.92,1.68-2.15,2.96-3.71,3.83-1.56,.87-3.3,1.3-5.22,1.3s-3.66-.44-5.22-1.3Zm9.14-4.7c.96-1.18,1.44-2.92,1.44-5.2s-.48-4.01-1.44-5.2c-.96-1.18-2.27-1.78-3.92-1.78s-2.96,.59-3.92,1.78c-.96,1.19-1.44,2.92-1.44,5.2s.48,4.01,1.44,5.2c.96,1.19,2.26,1.78,3.92,1.78s2.95-.59,3.92-1.78Z"/>
      <path class="cls-1" d="M258.81,157.33c-.54-.56-.81-1.28-.81-2.18s.27-1.67,.81-2.23c.54-.55,1.27-.83,2.21-.83s1.67,.28,2.23,.83c.55,.56,.83,1.3,.83,2.23s-.28,1.63-.83,2.18c-.56,.55-1.3,.83-2.23,.83s-1.67-.28-2.21-.83Zm4.68,26.12h-4.95v-21.15h4.95v21.15Z"/>
      <path class="cls-1" d="M269.7,183.45v-21.15h4.5l.45,2.88c.66-1.05,1.53-1.9,2.61-2.54,1.08-.64,2.32-.97,3.74-.97,2.28,0,3.99,.65,5.13,1.96,1.14,1.3,1.71,3.11,1.71,5.42v14.4h-4.95v-13.72c0-1.2-.29-2.14-.88-2.83s-1.45-1.04-2.59-1.04c-.99,0-1.89,.28-2.7,.83-.81,.56-1.5,1.31-2.07,2.27v14.49h-4.95Z"/>
      <path class="cls-1" d="M297.91,182.73c-1.62-.9-2.87-2.19-3.76-3.87-.89-1.68-1.33-3.67-1.33-5.99s.45-4.31,1.35-6.01c.9-1.7,2.12-2.99,3.67-3.87s3.26-1.33,5.15-1.33c3.09,0,5.46,.97,7.11,2.9,1.65,1.94,2.47,4.52,2.47,7.76,0,.39-.03,1.01-.09,1.85h-14.76c.24,1.83,.88,3.26,1.91,4.3,1.04,1.04,2.39,1.55,4.07,1.55,1.17,0,2.21-.23,3.1-.7,.9-.46,1.72-1.15,2.48-2.05l2.88,3.06c-1.08,1.26-2.29,2.2-3.65,2.81-1.35,.62-3,.92-4.95,.92-2.16,0-4.05-.45-5.67-1.35Zm10.17-12.15c-.12-1.65-.63-2.88-1.53-3.69-.9-.81-2.1-1.22-3.6-1.22-1.38,0-2.51,.43-3.4,1.28-.88,.85-1.46,2.06-1.73,3.62h10.26Z"/>
      <path class="cls-1" d="M320.91,182.78c-1.41-.87-2.54-2.14-3.38-3.83-.84-1.68-1.26-3.71-1.26-6.08s.42-4.39,1.26-6.08c.84-1.68,1.96-2.95,3.38-3.82,1.41-.87,2.95-1.31,4.63-1.31,1.23,0,2.34,.2,3.33,.61,.99,.41,1.81,.97,2.47,1.69v-13.36h4.95v32.85h-4.23l-.36-2.34c-.72,.93-1.6,1.66-2.63,2.18s-2.21,.79-3.53,.79c-1.68,0-3.23-.44-4.63-1.3Zm10.44-5.49v-8.82c-1.2-1.71-2.71-2.56-4.54-2.56-1.59,0-2.91,.61-3.96,1.82-1.05,1.21-1.58,2.93-1.58,5.15s.52,3.94,1.58,5.15c1.05,1.22,2.37,1.82,3.96,1.82,1.8,0,3.31-.86,4.54-2.57Z"/>
      <path class="cls-1" d="M360.37,183.32c-2.85-1.08-5.09-2.92-6.73-5.51-1.64-2.59-2.45-5.89-2.45-9.88,0-3.36,.58-6.25,1.75-8.68s2.8-4.28,4.91-5.56c2.1-1.27,4.51-1.91,7.25-1.91s5.15,.64,7.27,1.91c2.12,1.28,3.76,3.13,4.93,5.56s1.75,5.33,1.75,8.68c0,3.75-.72,6.9-2.16,9.45-1.44,2.55-3.44,4.37-5.99,5.45l7.02,1.84v5.36l-17.55-6.71Zm11.14-6.95c1.51-1.96,2.27-4.78,2.27-8.44s-.76-6.47-2.27-8.44c-1.51-1.96-3.65-2.95-6.41-2.95s-4.85,.98-6.37,2.95c-1.52,1.97-2.27,4.78-2.27,8.44s.76,6.47,2.27,8.44c1.51,1.97,3.64,2.95,6.37,2.95s4.9-.98,6.41-2.95Z"/>
      <path class="cls-1" d="M385.71,182.13c-1.14-1.31-1.71-3.11-1.71-5.42v-14.4h4.95v13.73c0,1.2,.29,2.15,.88,2.83,.58,.69,1.45,1.04,2.59,1.04,.99,0,1.89-.28,2.7-.83,.81-.55,1.5-1.31,2.07-2.27v-14.49h4.95v21.15h-4.5l-.45-2.88c-.63,1.02-1.49,1.86-2.59,2.52-1.09,.66-2.35,.99-3.76,.99-2.28,0-3.99-.65-5.13-1.96Z"/>
      <path class="cls-1" d="M412.21,182.73c-1.62-.9-2.87-2.19-3.76-3.87-.89-1.68-1.33-3.67-1.33-5.99s.45-4.31,1.35-6.01c.9-1.7,2.12-2.99,3.67-3.87s3.26-1.33,5.15-1.33c3.09,0,5.46,.97,7.11,2.9,1.65,1.94,2.47,4.52,2.47,7.76,0,.39-.03,1.01-.09,1.85h-14.76c.24,1.83,.88,3.26,1.91,4.3,1.04,1.04,2.39,1.55,4.07,1.55,1.17,0,2.21-.23,3.1-.7,.9-.46,1.72-1.15,2.48-2.05l2.88,3.06c-1.08,1.26-2.29,2.2-3.65,2.81-1.35,.62-3,.92-4.95,.92-2.16,0-4.05-.45-5.67-1.35Zm10.17-12.15c-.12-1.65-.63-2.88-1.53-3.69-.9-.81-2.1-1.22-3.6-1.22-1.38,0-2.51,.43-3.4,1.28-.88,.85-1.46,2.06-1.73,3.62h10.26Z"/>
      <path class="cls-1" d="M433.5,182.13c-1.14-1.31-1.71-3.11-1.71-5.42v-14.4h4.95v13.73c0,1.2,.29,2.15,.88,2.83,.58,.69,1.45,1.04,2.59,1.04,.99,0,1.89-.28,2.7-.83,.81-.55,1.5-1.31,2.07-2.27v-14.49h4.95v21.15h-4.5l-.45-2.88c-.63,1.02-1.49,1.86-2.59,2.52-1.09,.66-2.35,.99-3.76,.99-2.28,0-3.99-.65-5.13-1.96Z"/>
      <path class="cls-1" d="M460,182.73c-1.62-.9-2.87-2.19-3.76-3.87-.89-1.68-1.33-3.67-1.33-5.99s.45-4.31,1.35-6.01c.9-1.7,2.12-2.99,3.67-3.87s3.26-1.33,5.15-1.33c3.09,0,5.46,.97,7.11,2.9,1.65,1.94,2.47,4.52,2.47,7.76,0,.39-.03,1.01-.09,1.85h-14.76c.24,1.83,.88,3.26,1.91,4.3,1.04,1.04,2.39,1.55,4.07,1.55,1.17,0,2.21-.23,3.1-.7,.9-.46,1.72-1.15,2.48-2.05l2.88,3.06c-1.08,1.26-2.29,2.2-3.65,2.81-1.35,.62-3,.92-4.95,.92-2.16,0-4.05-.45-5.67-1.35Zm10.17-12.15c-.12-1.65-.63-2.88-1.53-3.69-.9-.81-2.1-1.22-3.6-1.22-1.38,0-2.51,.43-3.4,1.28-.88,.85-1.46,2.06-1.73,3.62h10.26Z"/>
      <path class="cls-1" d="M480.09,182.87c-.62-.63-.92-1.44-.92-2.43s.31-1.79,.94-2.41c.63-.61,1.44-.92,2.43-.92s1.84,.31,2.45,.92c.61,.62,.92,1.42,.92,2.41s-.31,1.8-.92,2.43c-.62,.63-1.43,.95-2.45,.95s-1.84-.32-2.45-.95Zm4.43-9.76h-3.96l-.81-20.7h5.58l-.81,20.7Z"/>
    </g>
    <g>
      <path class="cls-6" d="M75.05,229.37v-31.05h12.65c2.97,0,5.29,.88,6.98,2.63,1.68,1.76,2.52,4.16,2.52,7.22s-.84,5.53-2.52,7.31c-1.68,1.79-4.01,2.68-6.98,2.68h-8.42v11.21h-4.23Zm12.15-15.12c1.83,0,3.25-.49,4.25-1.46,1-.97,1.51-2.48,1.51-4.52s-.5-3.55-1.51-4.54c-1.01-.99-2.42-1.48-4.25-1.48h-7.92v12.01h7.92Z"/>
      <path class="cls-6" d="M103.85,228.42c-.9-.93-1.35-2.34-1.35-4.23v-27.67h4v27.4c0,.87,.16,1.49,.47,1.87s.82,.56,1.51,.56,1.2-.15,1.62-.45v3.46c-.39,.18-.75,.3-1.08,.36-.33,.06-.77,.09-1.3,.09-1.68,0-2.97-.46-3.87-1.4Z"/>
      <path class="cls-6" d="M115.73,228.38c-1.29-1.08-1.94-2.62-1.94-4.63,0-2.49,1.14-4.32,3.42-5.49s5.58-1.78,9.9-1.84v-1.04c0-1.41-.41-2.5-1.22-3.29-.81-.78-1.95-1.17-3.42-1.17-1.05,0-2.1,.23-3.15,.7-1.05,.47-2.01,1.13-2.88,2l-2.12-2.61c.96-1.05,2.17-1.88,3.65-2.5,1.47-.61,3.02-.92,4.64-.92,2.79,0,4.9,.66,6.34,1.98s2.16,3.25,2.16,5.8v14h-3.6l-.4-2.88c-.63,.96-1.54,1.79-2.72,2.47-1.19,.69-2.5,1.04-3.94,1.04-1.86,0-3.44-.54-4.73-1.62Zm11.39-5.13v-4c-3.21,.09-5.57,.49-7.09,1.19-1.52,.71-2.27,1.76-2.27,3.17,0,1.02,.32,1.79,.97,2.32,.64,.53,1.52,.79,2.63,.79,2.28,0,4.2-1.15,5.76-3.46Z"/>
      <path class="cls-6" d="M134,237.78v-3.51c.96,.42,1.86,.63,2.7,.63,1.17,0,2.1-.35,2.79-1.04,.69-.69,1.32-1.8,1.89-3.33l.68-1.71-7.88-20.61h4.18l5.58,15.53,5.9-15.53h4.05l-9.54,24.17c-.78,1.95-1.75,3.43-2.9,4.43-1.16,1-2.6,1.51-4.34,1.51-1.26,0-2.29-.18-3.1-.54Z"/>
      <path class="cls-6" d="M160.44,228.56c-1.55-.96-2.73-2.29-3.55-3.98-.83-1.69-1.24-3.64-1.24-5.83s.42-4.13,1.26-5.83c.84-1.69,2.01-3.01,3.51-3.94,1.5-.93,3.22-1.4,5.18-1.4,2.85,0,5.1,.92,6.75,2.77,1.65,1.84,2.47,4.39,2.47,7.63,0,.39-.03,.97-.09,1.75h-15.12c.18,2.13,.85,3.82,2,5.06,1.15,1.25,2.65,1.87,4.48,1.87,2.46,0,4.44-1.05,5.94-3.15l2.61,2.29c-1.08,1.5-2.29,2.57-3.65,3.22-1.35,.65-3.03,.97-5.04,.97-2.13,0-3.97-.48-5.51-1.44Zm10.69-11.93c-.12-1.95-.69-3.4-1.71-4.34-1.02-.95-2.34-1.42-3.96-1.42-1.53,0-2.8,.5-3.8,1.49-1.01,.99-1.64,2.42-1.91,4.27h11.38Z"/>
      <path class="cls-6" d="M180.12,229.37v-21.15h3.46l.5,3.02c.69-1.2,1.51-2.11,2.45-2.72,.94-.61,2.14-.92,3.58-.92,1.05,0,1.92,.15,2.61,.45v3.83c-.42-.18-.92-.33-1.51-.45-.58-.12-1.13-.18-1.64-.18-2.22,0-4.05,1.35-5.49,4.05v14.08h-3.96Z"/>
    </g>
    <rect class="cls-5" x="75.05" y="433.26" width="171.39" height="54.75" rx="12.7" ry="12.7"/>
    <g>
      <path class="cls-4" d="M107.9,451.04l-1.66,13.23c-.03,.21-.05,.5-.05,.86,0,1.65,.63,2.47,1.89,2.47,.96,0,1.87-.43,2.72-1.28,.85-.85,1.54-2.04,2.07-3.55,.52-1.51,.79-3.2,.79-5.06,0-2.73-.58-5.09-1.73-7.09-1.16-2-2.75-3.52-4.77-4.57-2.02-1.05-4.31-1.58-6.86-1.58-3.03,0-5.75,.71-8.15,2.14-2.4,1.42-4.28,3.44-5.65,6.03-1.37,2.59-2.05,5.56-2.05,8.89,0,2.7,.49,5.2,1.46,7.49,.97,2.29,2.56,4.16,4.77,5.6,2.21,1.44,5.05,2.16,8.53,2.16,2.1,0,4.06-.26,5.9-.77,1.83-.51,3.45-1.16,4.86-1.93l1.3,2.97c-1.65,.99-3.53,1.75-5.62,2.27-2.1,.52-4.34,.79-6.7,.79-4.11,0-7.52-.84-10.24-2.52-2.72-1.68-4.73-3.92-6.03-6.73-1.31-2.8-1.96-5.92-1.96-9.34,0-4.08,.87-7.67,2.61-10.76,1.74-3.09,4.1-5.47,7.06-7.13,2.97-1.67,6.25-2.5,9.85-2.5,3.24,0,6.13,.67,8.69,2.03,2.55,1.35,4.55,3.26,6.01,5.74,1.45,2.47,2.18,5.33,2.18,8.57,0,2.55-.44,4.82-1.3,6.82-.87,2-2.05,3.55-3.53,4.66-1.48,1.11-3.13,1.67-4.93,1.67-1.23,0-2.21-.33-2.95-.99-.74-.66-1.13-1.54-1.19-2.66-.6,1.11-1.48,2-2.63,2.66-1.15,.66-2.41,.99-3.76,.99-2.16,0-3.88-.83-5.15-2.48-1.28-1.65-1.91-3.85-1.91-6.61,0-2.16,.39-4.08,1.17-5.76,.78-1.68,1.85-2.98,3.22-3.92,1.36-.93,2.89-1.39,4.57-1.39,1.35,0,2.47,.31,3.35,.92,.88,.62,1.55,1.45,2,2.5l.85-2.83h2.97Zm-6.21,14.26c1.05-1.44,1.58-3.34,1.58-5.71,0-1.92-.36-3.4-1.08-4.46-.72-1.05-1.75-1.58-3.1-1.58-1.05,0-2,.33-2.86,.99-.85,.66-1.53,1.58-2.02,2.77-.5,1.19-.74,2.56-.74,4.12,0,1.92,.37,3.41,1.1,4.46,.73,1.05,1.78,1.58,3.13,1.58,1.62,0,2.95-.72,4-2.16Z"/>
      <path class="cls-4" d="M122.98,474.17v-31.05h12.65c2.97,0,5.29,.88,6.98,2.63,1.68,1.76,2.52,4.16,2.52,7.22s-.84,5.53-2.52,7.31c-1.68,1.79-4.01,2.68-6.98,2.68h-8.42v11.21h-4.23Zm12.15-15.12c1.83,0,3.25-.49,4.25-1.46,1-.97,1.51-2.48,1.51-4.52s-.5-3.55-1.51-4.54c-1.01-.99-2.42-1.48-4.25-1.48h-7.92v12.01h7.92Z"/>
      <path class="cls-4" d="M151.78,473.22c-.9-.93-1.35-2.34-1.35-4.23v-27.67h4v27.4c0,.87,.16,1.49,.47,1.87s.82,.56,1.51,.56,1.2-.15,1.62-.45v3.46c-.39,.18-.75,.3-1.08,.36-.33,.06-.77,.09-1.3,.09-1.68,0-2.97-.46-3.87-1.4Z"/>
      <path class="cls-4" d="M163.66,473.18c-1.29-1.08-1.94-2.62-1.94-4.63,0-2.49,1.14-4.32,3.42-5.49s5.58-1.78,9.9-1.84v-1.04c0-1.41-.41-2.5-1.22-3.29-.81-.78-1.95-1.17-3.42-1.17-1.05,0-2.1,.23-3.15,.7-1.05,.47-2.01,1.13-2.88,2l-2.12-2.61c.96-1.05,2.17-1.88,3.65-2.5,1.47-.61,3.02-.92,4.64-.92,2.79,0,4.9,.66,6.34,1.98s2.16,3.25,2.16,5.8v14h-3.6l-.4-2.88c-.63,.96-1.54,1.79-2.72,2.47-1.19,.69-2.5,1.04-3.94,1.04-1.86,0-3.44-.54-4.73-1.62Zm11.39-5.13v-4c-3.21,.09-5.57,.49-7.09,1.19-1.52,.71-2.27,1.76-2.27,3.17,0,1.02,.32,1.79,.97,2.32,.64,.53,1.52,.79,2.63,.79,2.28,0,4.2-1.15,5.76-3.46Z"/>
      <path class="cls-4" d="M181.93,482.58v-3.51c.96,.42,1.86,.63,2.7,.63,1.17,0,2.1-.35,2.79-1.04,.69-.69,1.32-1.8,1.89-3.33l.68-1.71-7.88-20.61h4.18l5.58,15.53,5.9-15.53h4.05l-9.54,24.17c-.78,1.95-1.75,3.43-2.9,4.43-1.16,1-2.6,1.51-4.34,1.51-1.26,0-2.29-.18-3.1-.54Z"/>
      <path class="cls-4" d="M208.37,473.36c-1.54-.96-2.73-2.29-3.55-3.98-.83-1.69-1.24-3.64-1.24-5.83s.42-4.13,1.26-5.83c.84-1.69,2.01-3.01,3.51-3.94,1.5-.93,3.22-1.4,5.17-1.4,2.85,0,5.1,.92,6.75,2.77s2.48,4.39,2.48,7.63c0,.39-.03,.97-.09,1.75h-15.12c.18,2.13,.85,3.82,2,5.06s2.65,1.87,4.48,1.87c2.46,0,4.44-1.05,5.94-3.15l2.61,2.29c-1.08,1.5-2.29,2.57-3.64,3.22-1.35,.65-3.03,.97-5.04,.97-2.13,0-3.97-.48-5.51-1.44Zm10.69-11.93c-.12-1.95-.69-3.4-1.71-4.34-1.02-.95-2.34-1.42-3.96-1.42-1.53,0-2.8,.5-3.8,1.49-1,.99-1.64,2.42-1.91,4.27h11.38Z"/>
      <path class="cls-4" d="M228.05,474.17v-21.15h3.46l.5,3.02c.69-1.2,1.51-2.11,2.45-2.72,.95-.61,2.14-.92,3.58-.92,1.05,0,1.92,.15,2.61,.45v3.83c-.42-.18-.92-.33-1.51-.45-.58-.12-1.13-.18-1.64-.18-2.22,0-4.05,1.35-5.49,4.05v14.08h-3.96Z"/>
    </g>
  </g>
</svg>